<?xml version="1.0" encoding="utf-8"?>
<!-- Generator: Adobe Illustrator 25.4.1, SVG Export Plug-In . SVG Version: 6.00 Build 0)  -->
<svg version="1.1" id="Layer_1" xmlns="http://www.w3.org/2000/svg" xmlns:xlink="http://www.w3.org/1999/xlink" x="0px" y="0px"
	 viewBox="0 0 899.7 158.3" style="enable-background:new 0 0 899.7 158.3;" xml:space="preserve">
<style type="text/css">
	.st0{fill:#0866FF;}
</style>
<path class="st0" d="M779.3,155.7h29.5V108l41.1,47.7H886l-47.9-55L879,53.1h-32.8L808.8,97V0l-29.5,3.9V155.7z M711.3,50.4
	c-32.7,0-55.5,22-55.5,53.9s22.7,53.9,55.5,53.9c32.7,0,55.5-22,55.5-53.9S744,50.4,711.3,50.4L711.3,50.4z M711.3,133.2
	c-15.2,0-25.6-11.7-25.6-28.8s10.4-28.8,25.6-28.8c15.2,0,25.6,11.7,25.6,28.8S726.5,133.2,711.3,133.2z M591.5,50.4
	c-32.7,0-55.5,22-55.5,53.9s22.7,53.9,55.5,53.9c32.7,0,55.5-22,55.5-53.9S624.2,50.4,591.5,50.4L591.5,50.4z M591.5,133.2
	c-15.2,0-25.6-11.7-25.6-28.8s10.4-28.8,25.6-28.8c15.2,0,25.6,11.7,25.6,28.8S606.7,133.2,591.5,133.2z M478.7,50.4
	c-13.6,0-24.9,5.4-32,15.2V0l-29.5,3.8v151.8h26.2l0.5-15.8c7,11.8,19.5,18.5,34.8,18.5c28,0,48.5-22.7,48.5-53.9
	C527.1,73.2,506.8,50.4,478.7,50.4L478.7,50.4z M471.7,133.2c-15.2,0-25.6-11.7-25.6-28.8s10.4-28.8,25.6-28.8
	c15.2,0,25.6,11.7,25.6,28.8S486.9,133.2,471.7,133.2z M358.1,134.5c-15.6,0-26.9-7.3-30.7-19.8H400c0.7-3.8,1.2-8.4,1.2-11.4
	c0-33-18.5-52.8-49.5-52.8c-31.3,0-53,22-53,53.9c0,32.3,22.7,53.9,56.5,53.9c17.5,0,34.4-5.8,45.1-15.6L389.5,124
	C379.3,131.1,369.2,134.5,358.1,134.5L358.1,134.5z M351.5,73.3c13.6,0,22.3,8.3,22.3,21.1v0.1h-47.1
	C329.5,80.9,338.3,73.3,351.5,73.3L351.5,73.3z M252.5,158.3c15.3,0,30.2-5.8,40.7-16L281.7,123c-8.2,6.4-17.5,9.8-26.3,9.8
	c-16.4,0-27.3-11.4-27.3-28.4S239,76,255.4,76c8.1,0,16.9,2.9,24,8.1l11.7-19.8c-9.5-8.6-24.2-13.8-38.7-13.8
	c-32,0-54.6,22.3-54.6,53.9C197.8,135.9,220.5,158.3,252.5,158.3z M158.7,53.1l-0.5,16c-7-11.9-19.5-18.6-34.8-18.6
	c-28.1,0-48.5,22.7-48.5,53.9c0,31.2,20.5,53.9,48.5,53.9c15.4,0,27.9-6.7,34.8-18.5l0.5,15.8h26.2V53.1H158.7L158.7,53.1z
	 M130.4,133.2c-15.2,0-25.6-11.7-25.6-28.8s10.4-28.8,25.6-28.8c15.2,0,25.6,11.7,25.6,28.8S145.5,133.2,130.4,133.2L130.4,133.2z
	 M72.7,53.2H46.2v-8.8c0-13.1,5.1-18.1,18.4-18.1c4.1,0,7.5,0.1,9.4,0.3V4.1c-3.6-1-12.5-2-17.6-2c-27.1,0-39.6,12.8-39.6,40.4v10.7
	H0V78h16.8v77.6h29.4V78h21.9L72.7,53.2z"/>
</svg>
